<?xml version="1.0" encoding="UTF-8" standalone="no"?>
<!-- Created with Inkscape (http://www.inkscape.org/) -->

<svg
   version="1.1"
   id="svg1"
   width="401.16776"
   height="545.79254"
   viewBox="0 0 401.16775 545.79254"
   xmlns="http://www.w3.org/2000/svg"
   xmlns:svg="http://www.w3.org/2000/svg">
  <defs
     id="defs1" />
  <g
     id="g1"
     transform="translate(456.94609,-60.13567)">
    <path
       style="fill:#dc9f3e;fill-opacity:1"
       d="m -442.55574,605.37543 c -4.30901,-1.41331 -8.63267,-4.69571 -11.21639,-8.51518 l -2.65028,-3.91786 -0.26183,-196.79999 -0.26184,-196.79999 22.92657,-39.46667 22.92656,-39.46666 0.006,-25.066671 c 0.005,-22.97793 0.17943,-25.351217 2.0881,-28.481546 4.39065,-7.201037 -6.56891,-6.718452 152.57643,-6.718452 159.145343,0 148.18578,-0.482585 152.57651,6.718452 1.90867,3.130329 2.08267,5.503616 2.0881,28.481546 l 0.006,25.066671 22.920208,39.46666 22.92021,39.46667 0.0112,146.81516 c 0.0105,138.26589 -0.0975,146.94607 -1.85548,149.06344 -1.02667,1.23656 -3.39485,2.54337 -5.26263,2.90403 -2.73926,0.52893 -3.92531,0.12639 -6.13333,-2.08164 l -2.73738,-2.73737 V 351.39089 209.47574 h -37.866748 -37.86667 v 190.39999 190.39999 h 36.58667 c 27.034068,0 36.920858,-0.3342 37.866658,-1.28 0.9374,-0.9374 1.28,-9.65818 1.28,-32.58181 v -31.30182 l 2.61818,-2.61818 c 3.35607,-3.35607 7.42843,-3.33522 10.81904,0.0554 l 2.67358,2.67358 -0.32207,33.85975 c -0.32166,33.81785 -0.32526,33.86447 -2.90576,37.67605 -1.42104,2.09896 -4.30104,4.97896 -6.4,6.4 l -3.8163,2.5837 -185.599988,0.16637 c -102.07999,0.0915 -186.55999,-0.14849 -187.73332,-0.53333 z m 278.93331,-113.66999 v -98.57029 l -7.73333,-1.35253 c -10.72901,-1.87647 -35.74231,-1.62561 -45.15237,0.45284 -11.45935,2.53109 -18.63585,5.5029 -36.71429,15.20349 -29.31599,15.73048 -38.22647,18.07383 -68.26666,17.95337 -28.58313,-0.11461 -33.81058,-1.52481 -66.66667,-17.98459 -24.80018,-12.42404 -31.06064,-14.69682 -45.06666,-16.3609 l -7.73333,-0.91882 v 98.79386 c 0,75.41744 0.30287,99.09672 1.28,100.07385 0.9823,0.98231 33.23259,1.28 138.66666,1.28 h 137.38665 z m -128.76395,-84.77798 c 9.11167,-2.39557 20.46328,-7.44159 35.84173,-15.93239 12.92169,-7.13436 26.0843,-12.31334 37.45556,-14.73733 10.20818,-2.17606 41.30572,-2.58444 50.4,-0.66188 l 5.06666,1.07112 v -83.59562 -83.59562 h -98.57942 c -54.21868,0 -99.39205,-0.31183 -100.38527,-0.69297 -0.99322,-0.38113 -2.41742,-2.14745 -3.16489,-3.92515 -1.74185,-4.14264 -0.32203,-8.51808 3.29955,-10.16818 1.92825,-0.87857 30.26164,-1.22537 102.61356,-1.25597 l 99.94981,-0.0423 17.6,-30.50758 c 9.68,-16.77917 17.76,-30.92015 17.95555,-31.4244 0.19722,-0.50852 -60.84291,-0.89888 -137.06666,-0.87655 l -137.42221,0.0403 -17.6,30.56288 c -9.68,16.80958 -17.76,30.95146 -17.95555,31.42641 -0.19556,0.47494 8.73971,0.86353 19.85614,0.86353 18.8325,0 20.40349,0.15085 23.02223,2.21075 3.6308,2.85599 3.86055,8.46122 0.47605,11.61436 -2.20471,2.054 -3.65731,2.17488 -26.13334,2.17488 h -23.79886 v 82.085 82.08499 l 3.46667,0.49546 c 25.78713,3.6855 32.33796,5.84033 55.31475,18.19519 28.43153,15.28793 37.77866,17.73226 65.48524,17.12477 11.7955,-0.25862 18.18179,-0.92443 24.3027,-2.53369 z M -78.289102,193.08484 c 0,-0.59232 -29.981718,-52.28054 -30.900988,-53.27302 -0.57875,-0.62485 -23.05276,36.82316 -31.72569,52.86393 -0.2379,0.44 13.75578,0.8 31.09707,0.8 17.341293,0 31.529608,-0.17591 31.529608,-0.39091 z M -117.75576,95.342409 V 76.14241 h -138.66666 -138.66666 v 19.199999 19.200001 h 138.66666 138.66666 z"
       id="path1" />
    <text
       xml:space="preserve"
       style="font-size:109.295px;text-align:start;writing-mode:lr-tb;direction:ltr;text-anchor:start;fill:#dc9f3e;fill-opacity:1;stroke-width:9.10791"
       x="-429.94672"
       y="321.12552"
       id="text2"
       transform="scale(0.94225034,1.0612891)"><tspan
         id="tspan2"
         x="-429.94672"
         y="321.12552"
         style="stroke-width:9.10791">Milk</tspan></text>
  </g>
</svg>
