<?xml version="1.0" encoding="UTF-8" standalone="no"?>
<!-- Created with Inkscape (http://www.inkscape.org/) -->

<svg
   version="1.1"
   id="svg1"
   width="453.84875"
   height="462.2822"
   viewBox="0 0 453.84875 462.2822"
   xmlns="http://www.w3.org/2000/svg"
   xmlns:svg="http://www.w3.org/2000/svg">
  <defs
     id="defs1" />
  <g
     id="g1"
     transform="translate(-592.8346,-18.429926)">
    <path
       style="fill:#dc9f3e;fill-opacity:1"
       d="M 791.19074,480.16104 C 748.07766,478.39717 707.62835,473.3733 684.6879,466.93322 l -9.58155,-2.68982 -4.9578,3.14814 c -8.52071,5.41053 -15.91001,7.65721 -26.96414,8.1983 -7.29018,0.35685 -11.71293,0.0526 -16.2934,-1.12087 -13.78664,-3.53197 -26.59156,-12.32696 -31.49565,-21.63261 -2.53214,-4.80481 -2.83339,-6.25293 -2.39172,-11.49721 0.4322,-5.13182 1.95905,-8.83285 10.55205,-25.57789 10.69496,-20.84108 14.65609,-32.06414 13.86555,-39.28524 -0.24909,-2.27528 -1.65816,-10.88687 -3.13127,-19.13687 -4.55271,-25.49688 -4.5553,-51.49238 -0.007,-71.44357 l 1.46891,-6.44358 -3.0651,-4.26807 c -4.81651,-6.70687 -8.82203,-16.1991 -10.16757,-24.09497 -2.09975,-12.32176 -0.57383,-18.61391 12.6712,-52.24981 6.38902,-16.225 12.4456,-32.0256 13.45906,-35.11245 2.34764,-7.15055 5.61452,-12.30277 11.58932,-18.27757 12.167,-12.167 35.95578,-24.26993 64.14832,-32.63652 l 7.19624,-2.1356 5.91725,-8.66893 c 3.25448,-4.767911 9.42471,-14.743928 13.71162,-22.168928 12.0847,-20.930927 20.65205,-32.930794 29.74049,-41.656063 9.35586,-8.982003 15.74911,-12.972903 27.23816,-17.003069 7.52721,-2.64042 8.94557,-2.802375 24,-2.740434 13.93143,0.05732 17.22821,0.398549 25.5,2.639345 26.07974,7.064903 50.59214,21.779528 73.96012,44.397756 14.31361,13.854358 24.037,25.35481 34.93916,41.324683 l 7.60072,11.13382 11.17476,4.79332 c 22.80991,9.78411 38.85127,21.70778 45.19777,33.59584 1.1701,2.19185 2.1275,4.36382 2.1275,4.82659 0,0.46277 5.869,15.8962 13.0422,34.29652 15.0477,38.59957 16.3133,43.81279 13.7115,56.47961 -1.9112,9.30395 -5.0962,16.89753 -9.5165,22.68845 l -3.3495,4.38806 1.5943,7.66779 c 5.4591,26.25563 4.0284,57.26969 -4.1538,90.04331 -2.3667,9.47968 -2.4823,10.86115 -1.3397,16 1.4487,6.51551 4.1396,12.11981 11.6464,24.25542 12.2514,19.80576 14.6723,28.47154 10.4124,37.27135 -2.8712,5.93111 -9.8069,12.02352 -18.4276,16.18704 -9.2828,4.4833 -16.1568,5.76134 -27.61528,5.13433 -10.81361,-0.59172 -18.87583,-3.04858 -26.50445,-8.07689 l -5,-3.29569 -6,1.81272 c -34.61104,10.45665 -109.01443,16.65318 -170,14.15808 z m 65.5,-13.34265 c 45.1654,-2.12096 77.87957,-6.50888 101.59323,-13.6266 4.89872,-1.47037 9.90347,-2.64981 11.12166,-2.62099 1.21819,0.0288 4.10749,1.6724 6.42066,3.65238 12.74277,10.90734 38.47661,11.48752 50.56531,1.14002 2.2851,-1.95592 4.6726,-5.12554 5.3056,-7.04359 2.0012,-6.06359 0.5155,-9.98246 -11.094,-29.26395 -12.447,-20.67246 -13.7265,-27.22839 -9.02,-46.21651 7.2204,-29.13042 8.8597,-58.98921 4.4494,-81.04077 l -0.5338,-2.6688 -6.5763,3.30876 c -14.81142,7.45204 -46.16462,12.1414 -104.23176,15.58948 -28.42982,1.68819 -134.0983,1.67783 -163.5,-0.016 -61.80778,-3.5608 -92.25662,-7.96884 -107.67736,-15.58831 -7.81311,-3.8605 -7.02477,-4.78309 -8.90015,10.41567 -2.04932,16.60847 -0.16169,42.52982 4.7254,64.89002 3.12125,14.28085 0.15973,26.15987 -12.6174,50.60998 -9.72853,18.61637 -10.80432,22.18522 -8.50352,28.20979 6.31244,16.52888 39.53412,21.85538 56.45141,9.05096 7.43136,-5.62467 7.79074,-5.74005 12.90915,-4.14421 40.25344,12.55033 110.5698,18.58146 179.11247,15.3627 z m 50,-171.95641 c 52.80661,-3.00845 82.9251,-7.41457 96.55716,-14.12563 16.5298,-8.13756 26.6025,-26.85012 23.6069,-43.85586 -0.7765,-4.40839 -21.1024,-58.89818 -22.6995,-60.85313 -0.1401,-0.17147 -4.82366,1.98103 -10.40789,4.78333 -39.7885,19.9668 -89.36542,33.57137 -138.55667,38.02179 -15.4433,1.39719 -52.57293,1.39622 -68,-0.002 -36.76942,-3.33201 -72.17917,-11.25867 -105.01868,-23.509 -10.2988,-3.84155 -31.47356,-12.96168 -39.59745,-17.05465 l -4.61613,-2.32569 -10.66741,27.30301 c -5.86707,15.01666 -11.18797,30.10223 -11.82422,33.52349 -3.7324,20.06992 9.74038,40.51257 31.03779,47.09459 17.96902,5.55338 58.92749,9.79093 115.6861,11.96885 27.53493,1.05657 119.8062,0.43776 144.5,-0.96907 z m -37,-90.44014 c 30.98229,-4.31964 60.75985,-11.63587 85.5,-21.00704 l 9,-3.40905 -0.34095,-3.33331 c -0.48605,-4.75182 -5.74663,-20.78241 -10.15645,-30.94974 -15.27409,-35.21619 -47.9591,-73.852341 -79.82912,-94.364083 -10.895,-7.012086 -26.39228,-14.081783 -37.67348,-17.186243 -8.56289,-2.35641 -11.94011,-2.757734 -23.5,-2.79257 -10.64735,-0.03209 -14.66219,0.354933 -19,1.831545 -19.96106,6.794844 -32.17275,19.504629 -52.00652,54.127773 -12.11149,21.142618 -16.82449,27.334248 -35.01462,45.999998 -11.63377,11.93796 -19.55478,21.03103 -23.51981,27 -5.80312,8.73606 -10.19331,17.12689 -9.36552,17.90003 0.22356,0.2088 6.48147,2.63299 13.90647,5.3871 31.02952,11.50956 64.08419,18.79665 102.5,22.5967 10.52603,1.04122 68.54063,-0.27313 79.5,-1.80111 z m 119.5475,-35.51314 c 5.74887,-2.71173 10.4525,-5.37547 10.4525,-5.91941 0,-2.05463 -10.41566,-12.27177 -16.82685,-16.50613 -6.92712,-4.57513 -16.41278,-9.64404 -18.04728,-9.64404 -0.51733,0 0.52424,3.4875 2.3146,7.75 3.36035,8.00031 6.63687,17.58819 8.5434,25 0.60127,2.3375 1.54725,4.25 2.10217,4.25 0.55493,0 5.71259,-2.21869 11.46146,-4.93042 z m -325.96277,-0.31955 c 2.74129,-6.16926 14.41419,-23.31525 20.45505,-30.04583 2.86104,-3.1877 4.92502,-6.0727 4.58661,-6.41111 -1.056,-1.05599 -26.79042,12.41093 -33.70839,17.63973 -5.72731,4.32887 -11.918,11.26869 -11.918,13.36018 0,0.62504 16.70586,9.53861 18.09813,9.65642 0.32897,0.0278 1.44794,-1.86189 2.4866,-4.19939 z"
       id="path1" />
    <text
       xml:space="preserve"
       style="font-size:89.3316px;text-align:start;writing-mode:lr-tb;direction:ltr;text-anchor:start;fill:#dc9f3e;stroke-width:7.4443"
       x="694.38757"
       y="390.67227"
       id="text2"
       transform="scale(0.98738077,1.0127805)"><tspan
         id="tspan2"
         x="694.38757"
         y="390.67227"
         style="stroke-width:7.4443">Sugar</tspan></text>
  </g>
</svg>
